<svg id="Layer_1" data-name="Layer 1" xmlns="http://www.w3.org/2000/svg" viewBox="0 0 438.11 192.97"><defs><style>.cls-1{fill:none;stroke:#130c0d;stroke-miterlimit:10;stroke-width:3px;}</style></defs><title>borderline</title><path class="cls-1" d="M0,1.5H26.41s0,1.33,3.2,1.33H53.36V7.9s-1.6,1.6,7.2,5.34,69.36,31.21,69.36,31.21,14.14,2.4,21.88,2.93,39.48,1.07,39.48,1.07l2.13-10.14,37.62.53S230,37,238,45.25s8.54,10.67,8.54,10.67a22.86,22.86,0,0,0,7.2,6.14C258,64.19,262,68.73,262,68.73l3.47,3.2s4.8,16.27,5.87,18.67,1.87,7.47,14.14,13.87,15.21,8,15.21,8,1.33.53,2.93-1.07,6.4-6.94,7.2-9.34.8-4.8,2.93-6.4,4-.27,5.34-1.6,4-4.54,5.34-4.54,2.93,1.6,4.27,1.6,7.2,1.6,8,1.33,4.8.8,8.8,5.34S356.42,109,356.42,109l2.67,1.33s3.73,4.16,5.07,7.28,2.93,8.19,2.93,9.79,2.93,6.94,8,10.14,6.67,5.07,8.27,7.74a36.61,36.61,0,0,1,3.73,12.27c.27,3.47,7.74,19.74,8.8,20.28s3.73,2.4,6.4,2.93a29.23,29.23,0,0,1,7.74,2.93c1.87,1.07,4,4.54,7.47,4.54s8.8-1.07,10.4,0,2.67,3.47,10.14,3.2"/></svg>